<svg version="1.1" id="Layer_1" xmlns="http://www.w3.org/2000/svg" x="0" y="0" viewBox="0 0 382.2 78.8" xml:space="preserve"><style>.st0{fill:#575757}.st1{fill:#565656}.st2{fill:#fba76c}.st5{fill:#fdbc7e}</style><path class="st0" d="M372.3 31.4v-2.8c0-.5.1-.7.7-.7h6.9c.6 0 .7.2.7.7 0 10.3.1 20.6-.1 30.9-.1 8.9-6.1 15.4-14.9 16.7-6.7 1-12.8-.4-18.6-3.9-.8-.5-1-.9-.5-1.8.9-1.6 1.8-3.3 2.6-5 .3-.6.5-.6 1-.3 3.2 2 6.7 3.4 10.6 3.6 3.6.2 6.9-.6 9.3-3.5 1.8-2.1 2.2-4.7 2-7.5-.4.4-.7.6-1 .9-2.9 2.5-6.4 3.4-10.2 3.3-4.1-.2-7.7-1.4-10.7-4.2-3.2-2.9-4.9-6.6-5.4-10.8-.6-5.2.5-10 3.9-14 3-3.6 6.9-5.5 11.6-5.9 4.6-.4 8.6.8 11.9 4.1-.1.1 0 .1.2.2zm-.1 13.3c0-5.5-4-9.6-9.4-9.6s-9.5 4.1-9.5 9.5c0 5.5 4 9.7 9.4 9.7 5.4.1 9.4-4 9.5-9.6z"/><path class="st1" d="M229.7 58.2v17.1c0 .6-.2.7-.7.7h-7.4c-.6 0-.8-.1-.8-.8.1-1 0-1.9 0-2.9V29c0-1.4-.1-1.2 1.3-1.2h6.8c.6 0 .8.2.8.8v3.3c1.5-1.5 2.9-2.8 4.7-3.6 6.2-2.9 14.1-1 18.7 4.5 6.5 7.8 5.3 20.4-2.5 26.5-5.5 4.4-14.8 5.1-20.5-.9-.1 0-.2 0-.4-.2zm9.2-22.9c-5.4 0-9.4 4.1-9.4 9.6 0 5.6 4 9.8 9.3 9.8 5.4 0 9.5-4.1 9.5-9.7 0-5.5-4-9.7-9.4-9.7zM198.1 62.8c-5.7 0-10.8-1.7-15-5.6-.8-.7-1.5-1.6-2.2-2.4-.3-.4-.3-.7 0-1.1 1.5-1.8 3-3.5 4.4-5.3.4-.5.6-.5 1.1 0 2.4 3 5.5 5 9.4 5.6 2.3.4 4.6.3 6.7-.9 1.9-1.1 2.7-3.2 2.1-5-.4-1.3-1.3-2.1-2.4-2.7-1.7-1.1-3.6-1.7-5.5-2.5-2.6-1-5.2-2.1-7.5-3.6-8.6-5.6-7.4-17.9 1.4-22.2 7.5-3.6 14.7-2.5 21.4 2.2.8.6 1.9 1.1 2.1 2 .3.9-.9 1.6-1.5 2.4-.8 1.3-1.8 2.4-2.7 3.7-.4.6-.7.7-1.3.2-2.6-2.3-5.7-3.5-9.1-3.7-1.5-.1-2.9.2-4.2.9-2.3 1.4-2.7 4.3-.8 6.3.9 1 2.1 1.5 3.3 2.1 3.4 1.5 6.9 2.7 10.1 4.5 3.6 1.9 6.3 4.6 7 8.9 1 6.7-2.3 12.3-8.6 14.9-2.6.9-5.3 1.3-8.2 1.3zM106.2 31.9v-3.2c0-.5.1-.8.7-.8h6.9c.7 0 .8.2.8.8v32.5c0 .7-.2.9-.9.9-2.2 0-4.5-.1-6.7 0-.7 0-.9-.2-.8-.9.1-.9 0-1.8 0-2.9-.7.6-1.2 1.1-1.8 1.6-5.6 4.3-14.2 4-19.7-.7-4.8-4.2-6.6-9.6-6.2-15.9.3-4.5 2-8.4 5.2-11.6 5.5-5.5 15.9-6.9 22.5.2zM87.3 45c0 5.6 4 9.8 9.5 9.8 5.4 0 9.5-4.2 9.5-9.9 0-5.5-4.1-9.8-9.5-9.8s-9.5 4.3-9.5 9.9zM45.2 38.9V16.7c0-.7.2-.9.9-.9h29c.7 0 .9.2.9.9 0 2.3-.1 4.7 0 7 0 .8-.3 1-1 .9H55.6c-1 0-1.2.3-1.2 1.2.1 2.8 0 5.5 0 8.3 0 .7.2.9.9.9h17.1c.8 0 1 .2 1 1-.1 2.3-.1 4.5 0 6.8 0 .8-.2 1-1 1H55.7c-1.3 0-1.3 0-1.3 1.3v16.1c0 .8-.3 1-1 .9-2.5 0-4.9-.1-7.4 0-.8 0-1-.2-1-1 .2-7.4.2-14.8.2-22.2zM315.6 32.2c2.1-2.7 4.7-4.4 8-5 6.9-1.3 14.8 2.3 15.9 11.6.2 1.9.2 3.9.2 5.8v16.5c0 .7-.2.9-.9.9-2.3 0-4.6-.1-6.9 0-.8 0-1.1-.2-1.1-1V44c0-1.2-.1-2.3-.3-3.4-.8-3.3-3-5.2-6.2-5.4-3.3-.3-6.2 1.4-7.6 4.4-.6 1.4-.9 2.8-.9 4.4v17.2c0 .8-.2 1-1 1-2.4-.1-4.8 0-7.2 0-.6 0-.7-.2-.7-.7V28.8c0-.7.2-.8.8-.8h7.1c.6 0 .8.2.8.8-.1 1 0 2.2 0 3.4zM175.1 53.1c.8 2.2 1.6 4.3 2.5 6.5.2.5-.1.7-.5.9-2.4 1.4-5.1 2.1-7.9 2.3-2.6.2-5.2 0-7.6-1.2-3.2-1.6-4.7-4.4-5.4-7.7-.3-1.3-.4-2.7-.4-4.1V36.2c0-.7-.1-.9-.9-.9-1.4.1-2.7 0-4.1 0-.5 0-.7-.2-.7-.7v-6.1c0-.6.2-.7.8-.7 1.3 0 2.6-.1 3.9 0 .9.1 1-.3 1-1V16.7c0-.7.2-.9.9-.9h7c.7 0 .9.2.9.9v10.2c0 .9.3 1 1 1h9.4c.7 0 .9.1.9.9-.1 1.9 0 3.9 0 5.8 0 .7-.2.8-.8.8h-9.7c-.5 0-.8-.1-.8.6.1 4.5-.1 9.1.1 13.6 0 .5.1.9.1 1.4.6 3 2.8 4.3 6.1 3.7 1.4-.3 2.8-.9 4.2-1.6z"/><path class="st0" d="M132.8 62.9c-4.6-.1-9.1-1.9-12.8-5.9-.5-.5-.5-.8 0-1.4 1.2-1.4 2.4-2.8 3.5-4.2.6-.7.8-.5 1.3 0 2.5 2.5 5.4 4 9 4 1.3 0 2.5-.4 3.5-1.3 1.3-1.2 1.2-3-.2-4.1-.9-.7-2-1.1-3.1-1.5-1.9-.8-3.9-1.5-5.8-2.2-1.4-.6-2.8-1.4-3.9-2.4-4.9-4.6-3.4-12.6 2.8-15.6 5.8-2.8 13.7-1.6 18.5 2.8.5.5.5.7.1 1.3-1.2 1.4-2.3 2.9-3.4 4.4-.4.5-.6.6-1.1.1-1.7-1.5-3.8-2.5-6.1-2.8-1.2-.2-2.4-.1-3.5.5-1.8 1-2 3.1-.4 4.4.6.5 1.2.7 1.9 1 2.5.9 5.1 1.8 7.5 3 2.4 1.1 4.5 2.6 5.6 5.1 2.2 4.7.1 10.5-4.8 13-2.1 1.2-4.8 1.8-8.6 1.8z"/><path class="st1" d="M271.7 32c1.8-2.5 3.9-4.2 6.9-4.8 2-.4 3.9-.3 5.9.3.5.1.7.3.6.9l-.6 7.2c0 .6-.3.7-.8.5-1.8-.5-3.7-.7-5.6-.3-3.3.8-5.4 3.5-5.9 7.3-.2 1.8-.2 3.7-.2 5.5v12.6c0 .6-.1.8-.8.8h-7.4c-.6 0-.7-.2-.7-.7V28.6c0-.6.2-.8.8-.8h7c.6 0 .8.2.7.7 0 1.3.1 2.4.1 3.5z"/><path class="st2" d="M28.5 25.1l.8 1.2-5.8 6.7-8.2 10-5.9 8.5-.9.7s.8-4.9.7-5.4c0-.5 14-17.7 14.2-17.8s5.1-3.9 5.1-3.9z"/><path class="st1" d="M299.3 45v16.1c0 .7-.2.9-.9.9h-7.3c-.6 0-.7-.1-.7-.7V28.6c0-.6.2-.8.8-.8h7.3c.7 0 .8.2.8.8V45z"/><path class="st2" d="M6.4 57.1L8.1 56s3.5 5.4 3.6 5.1c.1-.3.5-3.1 1.7-4.4 1.2-1.3 3-2.9 3.1-3 0-.1-1.9 1.7-1.9 1.7l-.8-1.1-1-1.7 1.7-1.2 3 .4 8.7-4.9h4.3l.3 1.5-10 5.6-6.8 6.2-3.1 8.9s-1.8.4-1.9 0c-.1-.3-2.6-12-2.6-12z"/><path d="M9.5 51.6c-1 .7-2.1 1.5-3.1 2.2-.2.2-.5.3-.7 0-1.7-2.3-3.2-4.6-3.1-7.6.1-3.3 1.4-6 4.1-7.9 6.7-4.7 13.4-9.4 20-14.1.7-.5 1.1-.5 1.5.3.2.4.6.8.8 1.3-.9.3-1.3 1.1-2 1.7-3 2.7-5.9 5.5-8.5 8.6-3.6 4.2-6.5 9-8.6 14.1-.2.4-.4.9-.4 1.4z" fill="#fdb06d"/><path class="st2" d="M2.5 28.2l.1.6.1.9 20.3-8 7.7-7 .1-1-7.6 2.5-5.5 2.2-1.3 2.3s-1 .6-1 .5S15 14 15 14l-2.4 1.7-2.9 2-7.2 10.5z"/><path d="M30.7 47.6c1.1 3.5-.3 7.8-3.3 10-4.6 3.3-9.2 6.5-13.8 9.7-.9.6-1.8 1.3-2.7 1.9.1-2.5.4-5 1.3-7.3.2-.8.5-1.5.8-2.2.7-1.8 1.9-3.3 2.9-4.9.2-.2.4-.3.6-.5 3.8-4.1 8.8-5.8 14.2-6.7z" fill="#faa36a"/><path class="st5" d="M9.5 51.6c0-.5.2-1 .4-1.4 2.2-5.1 5-9.9 8.6-14.1 2.6-3.1 5.5-5.9 8.5-8.6.6-.6 1.1-1.4 2-1.7 2.3 2.6 2.6 7.2.8 10.5-.8 1.4-1.9 2.5-3.2 3.4-5.8 4-11.4 7.9-17.1 11.9z"/><path class="st2" d="M14.5 14.4l10.2-7.2c.7-.5 1.5-1 2.2-1.5.3-.2.6-.3.9 0 1.9 2.5 3.3 5.1 3 8.3-.4.1-.7.4-.9.7-1.2 1.6-2.7 2.8-4.3 3.9-3.5 2.3-7.4 3.7-11.3 5.1.3-1.1.6-2.2.5-3.3-.3-2-.2-4-.3-6z"/><path d="M14.2 23.8c3.9-1.4 7.8-2.9 11.3-5.1 1.6-1.1 3.2-2.3 4.3-3.9.2-.3.5-.7.9-.7-.3 3-1.7 5.3-4.2 7-6.6 4.7-13.3 9.3-19.9 14-.7.5-1 .4-1.4-.3-1-1.5-2.1-2.9-2.5-4.7-.1-.4-.1-.9-.1-1.3.5-.1.8-.4 1.2-.6 1.8-1 3.6-1.9 5.5-2.6 1.6-.6 3.3-1.2 4.9-1.8z" fill="#fdb36f"/><path d="M12.1 61.8c-.8 2.4-1.2 4.8-1.3 7.3-1.4 1.2-2.9 2.1-4.4 3.2-.3.2-.5.1-.7-.1-2.6-3.2-3.9-6.8-2.4-10.9.8-2.1 2.2-3.7 4.1-4.9.1.1.2.1.3.2.9 1.6 2 3.1 3.1 4.6.4.4.7.7 1.3.6z" fill="#fdad6d"/><path class="st0" d="M294.9 24.1c-3.1 0-5.4-2.3-5.4-5.4 0-3.1 2.3-5.4 5.5-5.4 3.1 0 5.5 2.3 5.4 5.4 0 3.1-2.4 5.4-5.5 5.4z"/><path class="st5" d="M30.7 47.6c-5.3.8-10.3 2.5-14.2 6.6-.2.2-.4.4-.6.5-.4 0-.6-.3-.8-.5-.7-.6-.8-1.5-1.4-2.1 4.5-3.2 9-6.3 13.5-9.5.5-.3.7-.3 1 .2.7 1.1 1.5 2 2 3.2.2.5.4 1 .5 1.6z"/><path d="M9.3 25.6c-1.9.7-3.7 1.6-5.5 2.6-.4.2-.8.5-1.2.6-.4-3.4.8-6.1 3.2-8.3 1.3-1.2 2.9-2.2 4.4-3.1.3.2.3.6.2.9-.2 1.1-.2 2.1-.4 3.2-.3 1.3-.5 2.7-.7 4.1z" fill="#fb9265"/><path d="M13.6 52.1c.6.6.8 1.5 1.4 2.1.2.2.4.5.8.5-1 1.6-2.2 3.1-2.9 4.9-.3.7-.6 1.4-.8 2.2-.6.1-.9-.2-1.2-.6-1.1-1.5-2.2-3-3.1-4.6-.1-.1-.2-.2-.3-.2 2-1.4 4-2.8 6.1-4.3z" fill="#fdb477"/><path d="M9.3 25.6c.2-1.4.4-2.8.7-4.2.2-1.1.2-2.1.4-3.2.1-.3.1-.6-.2-.9 1.4-1.1 2.8-2.1 4.3-3 .1 2-.1 4.1.2 6.1.1 1.1-.2 2.2-.5 3.3-1.6.7-3.3 1.3-4.9 1.9z" fill="#fb9f69"/></svg>